<?xml version="1.0" encoding="UTF-8" standalone="yes"?>
<!DOCTYPE svg PUBLIC "-//W3C//DTD SVG 1.1//EN" "http://www.w3.org/Graphics/SVG/1.1/DTD/svg11.dtd">

<svg width="400" height="44" viewBox="0 0 400 44" xmlns="http://www.w3.org/2000/svg" xmlns:xlink="http://www.w3.org/1999/xlink" version="1.1" baseProfile="full">
    <g transform="scale(1.000000,-1.000000) translate(0,-44)">
        <path d="M 14.555928 9.949348 L 1.000000 9.949348 L 1.000000 39.861680 L 15.530007 39.861680 Q 21.029492 39.780506 23.322635 36.675630 Q 24.702580 34.768062 24.702580 32.109638 Q 24.702580 29.370041 23.322635 27.705989 Q 22.551490 26.772498 21.049786 26.001353 Q 23.342928 25.169328 24.509794 23.363222 Q 25.676658 21.557119 25.676658 18.979869 Q 25.676658 16.321446 24.337301 14.210942 Q 23.484982 12.810704 22.206503 11.856918 Q 20.765679 10.761080 18.807375 10.355214 Q 16.849071 9.949348 14.555928 9.949348 Z M 14.413875 23.119704 L 6.966232 23.119704 L 6.966232 15.144433 L 14.312408 15.144433 Q 16.280859 15.144433 17.376698 15.672060 Q 19.365442 16.646138 19.365442 19.406027 Q 19.365442 21.739758 17.437578 22.612370 Q 16.362033 23.099410 14.413875 23.119704 Z M 17.518750 28.822121 Q 18.736349 29.552682 18.736349 31.439959 Q 18.736349 33.530169 17.112886 34.199848 Q 15.712646 34.666594 13.541262 34.666594 L 6.966232 34.666594 L 6.966232 28.071270 L 14.312408 28.071270 Q 16.280859 28.071270 17.518750 28.822121 Z M 49.379240 16.443205 Q 49.156013 14.474755 47.329615 12.445424 Q 44.488552 9.218789 39.374640 9.218789 Q 35.153634 9.218789 31.926997 11.938092 Q 28.700362 14.657395 28.700362 20.785974 Q 28.700362 26.528978 31.612450 29.593267 Q 34.524540 32.657557 39.171707 32.657557 Q 41.931596 32.657557 44.143569 31.622597 Q 46.355539 30.587640 47.796361 28.355376 Q 49.095133 26.386924 49.480705 23.789381 Q 49.703933 22.267385 49.663348 19.406027 L 34.524540 19.406027 Q 34.646299 16.077926 36.614751 14.738568 Q 37.812055 13.906542 39.496399 13.906542 Q 41.282212 13.906542 42.398342 14.921208 Q 43.007141 15.469127 43.473887 16.443205 Z M 43.656529 23.221169 Q 43.514475 25.514312 42.266435 26.701471 Q 41.018399 27.888630 39.171707 27.888630 Q 37.162670 27.888630 36.056684 26.630444 Q 34.950701 25.372259 34.666594 23.221169 Z M 68.799937 31.054385 Q 71.397474 29.390335 71.783046 25.331674 L 65.999455 25.331674 Q 65.877696 26.447806 65.370365 27.097190 Q 64.416579 28.274204 62.123436 28.274204 Q 60.236159 28.274204 59.434573 27.685697 Q 58.632988 27.097190 58.632988 26.305752 Q 58.632988 25.311381 59.485306 24.864928 Q 60.337627 24.398180 65.512419 23.261756 Q 68.962277 22.450024 70.687214 20.806266 Q 72.391849 19.142215 72.391849 16.646138 Q 72.391849 13.358623 69.946505 11.278560 Q 67.501161 9.198495 62.387248 9.198495 Q 57.171868 9.198495 54.685939 11.400319 Q 52.200009 13.602143 52.200009 17.011417 L 58.064774 17.011417 Q 58.247413 15.469127 58.856216 14.819741 Q 59.931761 13.663022 62.833704 13.663022 Q 64.538338 13.663022 65.542861 14.170356 Q 66.547375 14.677688 66.547375 15.692353 Q 66.547375 16.666433 65.735642 17.173763 Q 64.923914 17.681098 59.708533 18.918989 Q 55.954273 19.852480 54.411979 21.252720 Q 52.869688 22.632664 52.869688 25.230207 Q 52.869688 28.294496 55.274447 30.496320 Q 57.679202 32.698142 62.042262 32.698142 Q 66.182098 32.698142 68.799937 31.054385 Z M 86.800094 14.068889 L 86.800094 9.746415 L 84.060496 9.644949 Q 79.961253 9.502895 78.459547 11.065479 Q 77.485467 12.059852 77.485467 14.129769 L 77.485467 27.746576 L 74.400886 27.746576 L 74.400886 31.866118 L 77.485467 31.866118 L 77.485467 38.035282 L 83.208182 38.035282 L 83.208182 31.866118 L 86.800094 31.866118 L 86.800094 27.746576 L 83.208182 27.746576 L 83.208182 16.057633 Q 83.208182 14.697981 83.553165 14.363142 Q 83.898156 14.028303 85.663674 14.028303 Q 85.927486 14.028303 86.221733 14.038449 Q 86.515987 14.048595 86.800094 14.068889 Z M 123.733908 34.565125 L 108.737162 34.565125 L 108.737162 27.685697 L 121.866925 27.685697 L 121.866925 22.490611 L 108.737162 22.490611 L 108.737162 9.949348 L 102.527410 9.949348 L 102.527410 39.821095 L 123.733908 39.821095 Z M 128.279614 29.674441 Q 130.572757 32.596676 136.153411 32.596676 Q 139.785920 32.596676 142.606681 31.155852 Q 145.427458 29.715028 145.427458 25.717245 L 145.427458 15.570593 Q 145.427458 14.515342 145.468047 13.013637 Q 145.528914 11.877212 145.813021 11.471345 Q 146.097129 11.065479 146.665343 10.801666 L 146.665343 9.949348 L 140.374429 9.949348 Q 140.110616 10.619027 140.009144 11.207533 Q 139.907671 11.796039 139.846788 12.546891 Q 138.649492 11.248119 137.086910 10.334920 Q 135.219928 9.259376 132.865893 9.259376 Q 129.862490 9.259376 127.904182 10.974160 Q 125.945881 12.688944 125.945881 15.834407 Q 125.945881 19.913362 129.091346 21.739758 Q 130.816275 22.734131 134.164677 23.160289 L 136.133117 23.403809 Q 137.736287 23.606743 138.426268 23.911142 Q 139.664153 24.438767 139.664153 25.554899 Q 139.664153 26.914551 138.720515 27.432031 Q 137.776876 27.949509 135.950482 27.949509 Q 133.900865 27.949509 133.048543 26.934844 Q 132.439740 26.183993 132.236811 24.905513 L 126.656149 24.905513 Q 126.838784 27.807458 128.279614 29.674441 Z M 132.581786 14.129769 Q 133.393518 13.460089 134.570536 13.460089 Q 136.437518 13.460089 138.010255 14.555928 Q 139.582975 15.651767 139.643859 18.553710 L 139.643859 20.704800 Q 139.095939 20.359813 138.537880 20.146735 Q 137.979805 19.933655 137.005733 19.751014 L 135.706964 19.507494 Q 133.880570 19.182802 133.089132 18.716056 Q 131.749775 17.924616 131.749775 16.260565 Q 131.749775 14.779154 132.581786 14.129769 Z M 169.698250 24.134368 L 163.772605 24.134368 Q 163.610250 25.372259 162.940579 26.366632 Q 161.966506 27.705989 159.916873 27.705989 Q 156.994640 27.705989 155.919095 24.804047 Q 155.350880 23.261756 155.350880 20.704800 Q 155.350880 18.269603 155.919095 16.788192 Q 156.954051 14.028303 159.815416 14.028303 Q 161.844739 14.028303 162.697060 15.124141 Q 163.549382 16.219979 163.732016 17.965203 L 169.637366 17.965203 Q 169.434437 15.327073 167.729795 12.973050 Q 165.010491 9.178202 159.673355 9.178202 Q 154.336219 9.178202 151.819844 12.343957 Q 149.303469 15.509714 149.303469 20.562746 Q 149.303469 26.265165 152.083657 29.430921 Q 154.863844 32.596676 159.754533 32.596676 Q 163.914651 32.596676 166.562932 30.729693 Q 169.211214 28.862708 169.698250 24.134368 Z M 179.621673 32.069051 L 179.621673 9.949348 L 173.756912 9.949348 L 173.756912 32.069051 Z M 179.621673 40.044319 L 179.621673 34.707179 L 173.756912 34.707179 L 173.756912 40.044319 Z M 185.344388 39.861680 L 191.127987 39.861680 L 191.127987 9.949348 L 185.344388 9.949348 Z M 202.715463 32.069051 L 202.715463 9.949348 L 196.850687 9.949348 L 196.850687 32.069051 Z M 202.715463 40.044319 L 202.715463 34.707179 L 196.850687 34.707179 L 196.850687 40.044319 Z M 218.442764 14.068889 L 218.442764 9.746415 L 215.703165 9.644949 Q 211.603930 9.502895 210.102217 11.065479 Q 209.128144 12.059852 209.128144 14.129769 L 209.128144 27.746576 L 206.043555 27.746576 L 206.043555 31.866118 L 209.128144 31.866118 L 209.128144 38.035282 L 214.850859 38.035282 L 214.850859 31.866118 L 218.442764 31.866118 L 218.442764 27.746576 L 214.850859 27.746576 L 214.850859 16.057633 Q 214.850859 14.697981 215.195834 14.363142 Q 215.540825 14.028303 217.306351 14.028303 Q 217.570163 14.028303 217.864410 14.038449 Q 218.158657 14.048595 218.442764 14.068889 Z M 231.146374 15.753234 L 235.712366 32.069051 L 241.861250 32.069051 L 234.271552 10.314627 Q 232.079873 4.023703 230.801383 2.511851 Q 229.522909 1.000000 225.687471 1.000000 Q 224.916328 1.000000 224.449586 1.010146 Q 223.982844 1.020294 223.049345 1.081173 L 223.049345 5.708047 L 223.779899 5.667461 Q 224.632221 5.626873 225.403364 5.728340 Q 226.174523 5.829807 226.702148 6.195087 Q 227.209479 6.540073 227.645787 7.635911 Q 228.082095 8.731750 228.000917 8.975269 L 219.883594 32.069051 L 226.316569 32.069051 Z M 275.629312 10.679907 Q 273.153511 9.157908 269.541312 9.157908 Q 263.595358 9.157908 259.800524 13.277450 Q 255.843335 17.417285 255.843335 24.601115 Q 255.843335 31.866118 259.841113 36.249473 Q 263.838891 40.632827 270.413928 40.632827 Q 276.116349 40.632827 279.576362 37.741032 Q 283.036345 34.849232 283.543691 30.526760 L 277.394823 30.526760 Q 276.684563 33.591049 273.924670 34.808647 Q 272.382383 35.478326 270.495106 35.478326 Q 266.882876 35.478326 264.559291 32.748875 Q 262.235737 30.019427 262.235737 24.540234 Q 262.235737 19.020456 264.752096 16.727312 Q 267.268455 14.434169 270.474796 14.434169 Q 273.620268 14.434169 275.629312 16.250419 Q 277.638325 18.066670 278.105083 21.009199 L 271.185056 21.009199 L 271.185056 26.001353 L 283.645148 26.001353 L 283.645148 9.949348 L 279.505324 9.949348 L 278.876242 13.683316 Q 277.070142 11.552518 275.629312 10.679907 Z M 301.564158 25.981058 Q 300.833588 27.584230 298.702777 27.584230 Q 296.227007 27.584230 295.374701 25.981058 Q 294.907944 25.067859 294.907944 23.261756 L 294.907944 9.949348 L 289.043167 9.949348 L 289.043167 32.028464 L 294.664410 32.028464 L 294.664410 28.801829 Q 295.739971 30.526760 296.693764 31.257318 Q 298.378097 32.556089 301.056812 32.556089 Q 303.593481 32.556089 305.156047 31.439959 Q 306.414242 30.404999 307.063634 28.781534 Q 308.200063 30.729693 309.884395 31.642892 Q 311.670216 32.556089 313.861895 32.556089 Q 315.323004 32.556089 316.743555 31.987877 Q 318.164075 31.419664 319.320782 29.999135 Q 320.254297 28.842416 320.578977 27.158070 Q 320.781922 26.041940 320.781922 23.890848 L 320.741333 9.949348 L 314.815688 9.949348 L 314.815688 24.032901 Q 314.815688 25.291087 314.409799 26.102819 Q 313.638671 27.645110 311.568759 27.645110 Q 309.174135 27.645110 308.260931 25.656366 Q 307.794205 24.601115 307.794205 23.119704 L 307.794205 9.949348 L 301.970017 9.949348 L 301.970017 23.119704 Q 301.970017 25.088154 301.564158 25.981058 Z M 338.112377 9.360842 Q 335.372794 9.360842 333.708740 10.456680 Q 332.714358 11.106066 331.557650 12.729530 L 331.557650 9.949348 L 325.895819 9.949348 L 325.895819 39.821095 L 331.659107 39.821095 L 331.659107 29.187400 Q 332.754947 30.729693 334.074010 31.541423 Q 335.636607 32.556089 338.051509 32.556089 Q 342.414557 32.556089 344.880219 29.410628 Q 347.345850 26.265165 347.345850 21.293305 Q 347.345850 16.138806 344.910637 12.749823 Q 342.475456 9.360842 338.112377 9.360842 Z M 341.278160 20.684505 Q 341.278160 23.038530 340.669357 24.580821 Q 339.512618 27.503058 336.407766 27.503058 Q 333.262293 27.503058 332.085276 24.641701 Q 331.476473 23.119704 331.476473 20.704800 Q 331.476473 17.863737 332.734668 15.996753 Q 333.992863 14.129769 336.570090 14.129769 Q 338.802358 14.129769 340.040243 15.935872 Q 341.278160 17.741978 341.278160 20.684505 Z M 369.790233 9.949348 L 369.790233 23.302343 L 358.101300 23.302343 L 358.101300 9.949348 L 351.911842 9.949348 L 351.911842 39.861680 L 358.101300 39.861680 L 358.101300 28.456842 L 369.790233 28.456842 L 369.790233 39.861680 L 376.000000 39.861680 L 376.000000 9.949348 Z" transform="scale(1.000000,1.000000) translate(11.500000,-1.564470)" fill="#ffffff" opacity="1.000000"></path>
    </g>
</svg>