<?xml version="1.0" encoding="UTF-8" standalone="yes"?>
<!DOCTYPE svg PUBLIC "-//W3C//DTD SVG 1.1//EN" "http://www.w3.org/Graphics/SVG/1.1/DTD/svg11.dtd">

<svg width="368" height="40" viewBox="0 0 368 40" xmlns="http://www.w3.org/2000/svg" xmlns:xlink="http://www.w3.org/1999/xlink" version="1.1" baseProfile="full">
    <g transform="scale(1.000000,-1.000000) translate(0,-40)">
        <path d="M 14.260159 9.754087 L 1.000000 9.754087 L 1.000000 39.013779 L 15.212985 39.013779 Q 20.592480 38.934377 22.835591 35.897244 Q 24.185427 34.031294 24.185427 31.430873 Q 24.185427 28.751051 22.835591 27.123307 Q 22.081270 26.210182 20.612331 25.455862 Q 22.855441 24.641990 23.996847 22.875292 Q 25.138253 21.108594 25.138253 18.587576 Q 25.138253 15.987156 23.828118 13.922700 Q 22.994395 12.553013 21.743811 11.620037 Q 20.334423 10.548108 18.418846 10.151098 Q 16.503270 9.754087 14.260159 9.754087 Z M 14.121205 22.637086 L 6.836058 22.637086 L 6.836058 14.835824 L 14.021952 14.835824 Q 15.947454 14.835824 17.019384 15.351938 Q 18.964736 16.304764 18.964736 19.004437 Q 18.964736 21.287249 17.078935 22.140822 Q 16.026857 22.617235 14.121205 22.637086 Z M 17.158337 28.215086 Q 18.349369 28.929706 18.349369 30.775806 Q 18.349369 32.820411 16.761327 33.475479 Q 15.391639 33.932041 13.267632 33.932041 L 6.836058 33.932041 L 6.836058 27.480617 L 14.021952 27.480617 Q 15.947454 27.480617 17.158337 28.215086 Z M 48.323681 16.106259 Q 48.105325 14.180757 46.318776 12.195703 Q 43.539701 9.039468 38.537366 9.039468 Q 34.408454 9.039468 31.252219 11.699440 Q 28.095983 14.359412 28.095983 20.354274 Q 28.095983 25.971976 30.944535 28.969407 Q 33.793087 31.966838 38.338860 31.966838 Q 41.038533 31.966838 43.202242 30.954461 Q 45.365951 29.942083 46.775339 27.758524 Q 48.045773 25.833022 48.422933 23.292153 Q 48.641289 21.803363 48.601588 19.004437 L 33.793087 19.004437 Q 33.912191 15.748949 35.837693 14.438814 Q 37.008874 13.624942 38.656469 13.624942 Q 40.403316 13.624942 41.495096 14.617469 Q 42.090612 15.153433 42.547174 16.106259 Z M 42.725829 22.736338 Q 42.586875 24.979449 41.366067 26.140705 Q 40.145259 27.301962 38.338860 27.301962 Q 36.373657 27.301962 35.291803 26.071228 Q 34.209949 24.840495 33.932041 22.736338 Z M 67.320645 30.398646 Q 69.861513 28.770902 70.238674 24.800794 L 64.581271 24.800794 Q 64.462167 25.892574 63.965904 26.527791 Q 63.032929 27.679122 60.789818 27.679122 Q 58.943718 27.679122 58.159622 27.103456 Q 57.375526 26.527791 57.375526 25.753620 Q 57.375526 24.780944 58.209248 24.344232 Q 59.042971 23.887669 64.104858 22.776039 Q 67.479449 21.982018 69.166745 20.374124 Q 70.834190 18.746380 70.834190 16.304764 Q 70.834190 13.088977 68.442200 11.054297 Q 66.050210 9.019617 61.047875 9.019617 Q 55.946287 9.019617 53.514596 11.173400 Q 51.082905 13.327184 51.082905 16.662074 L 56.819711 16.662074 Q 56.998365 15.153433 57.593882 14.518216 Q 58.645960 13.386735 61.484587 13.386735 Q 63.152032 13.386735 64.134634 13.882999 Q 65.117235 14.379262 65.117235 15.371789 Q 65.117235 16.324615 64.323214 16.820878 Q 63.529192 17.317142 58.427604 18.528024 Q 54.755255 19.441149 53.246614 20.810836 Q 51.737973 22.160673 51.737973 24.701541 Q 51.737973 27.698973 54.090262 29.852756 Q 56.442550 32.006539 60.710416 32.006539 Q 64.759925 32.006539 67.320645 30.398646 Z M 84.928071 13.783746 L 84.928071 9.555582 L 82.248249 9.456329 Q 78.238440 9.317375 76.769500 10.845866 Q 75.816675 11.818543 75.816675 13.843298 L 75.816675 27.163008 L 72.799393 27.163008 L 72.799393 31.192667 L 75.816675 31.192667 L 75.816675 37.227230 L 81.414526 37.227230 L 81.414526 31.192667 L 84.928071 31.192667 L 84.928071 27.163008 L 81.414526 27.163008 L 81.414526 15.729099 Q 81.414526 14.399113 81.751985 14.071579 Q 82.089444 13.744045 83.816441 13.744045 Q 84.074498 13.744045 84.362331 13.753970 Q 84.650164 13.763895 84.928071 13.783746 Z M 121.056049 33.832788 L 106.386502 33.832788 L 106.386502 27.103456 L 119.229799 27.103456 L 119.229799 22.021719 L 106.386502 22.021719 L 106.386502 9.754087 L 100.312238 9.754087 L 100.312238 38.974078 L 121.056049 38.974078 Z M 125.502569 29.048809 Q 127.745680 31.907286 133.204578 31.907286 Q 136.757824 31.907286 139.517048 30.497898 Q 142.276273 29.088510 142.276273 25.177954 L 142.276273 15.252686 Q 142.276273 14.220458 142.315974 12.751518 Q 142.375526 11.639888 142.653433 11.242877 Q 142.931341 10.845866 143.487156 10.587809 L 143.487156 9.754087 L 137.333489 9.754087 Q 137.075432 10.409155 136.976180 10.984820 Q 136.876927 11.560486 136.817375 12.294956 Q 135.646194 11.024521 134.117702 10.131247 Q 132.291453 9.079169 129.988791 9.079169 Q 127.050911 9.079169 125.135334 10.756539 Q 123.219757 12.433909 123.219757 15.510743 Q 123.219757 19.500701 126.296591 21.287249 Q 127.983886 22.259925 131.259225 22.676787 L 133.184727 22.914993 Q 134.752920 23.113498 135.427838 23.411256 Q 136.638721 23.927370 136.638721 25.019150 Q 136.638721 26.349136 135.715671 26.855325 Q 134.792621 27.361513 133.006072 27.361513 Q 131.001168 27.361513 130.167445 26.368987 Q 129.571929 25.634517 129.373424 24.383933 L 123.914526 24.383933 Q 124.093181 27.222560 125.502569 29.048809 Z M 129.710883 13.843298 Q 130.504905 13.188230 131.656236 13.188230 Q 133.482485 13.188230 135.020902 14.260159 Q 136.559318 15.332088 136.618870 18.170715 L 136.618870 20.274872 Q 136.082906 19.937412 135.537016 19.728982 Q 134.991126 19.520551 134.038300 19.341896 L 132.767866 19.103690 Q 130.981317 18.786081 130.207147 18.329519 Q 128.897011 17.555348 128.897011 15.927604 Q 128.897011 14.478515 129.710883 13.843298 Z M 166.017516 23.629612 L 160.221159 23.629612 Q 160.062354 24.840495 159.407287 25.813171 Q 158.454461 27.123307 156.449557 27.123307 Q 153.591079 27.123307 152.539001 24.284680 Q 151.983186 22.776039 151.983186 20.274872 Q 151.983186 17.892807 152.539001 16.443718 Q 153.551378 13.744045 156.350304 13.744045 Q 158.335358 13.744045 159.169080 14.815974 Q 160.002803 15.887903 160.181458 17.595049 L 165.957964 17.595049 Q 165.759459 15.014479 164.092013 12.711817 Q 161.432041 8.999766 156.211350 8.999766 Q 150.990659 8.999766 148.529192 12.096450 Q 146.067726 15.193134 146.067726 20.135918 Q 146.067726 25.713919 148.787249 28.810603 Q 151.506773 31.907286 156.290752 31.907286 Q 160.360112 31.907286 162.950608 30.081037 Q 165.541103 28.254788 166.017516 23.629612 Z M 175.724428 31.391172 L 175.724428 9.754087 L 169.987623 9.754087 L 169.987623 31.391172 Z M 175.724428 39.192434 L 175.724428 33.971742 L 169.987623 33.971742 L 169.987623 39.192434 Z M 181.322280 39.013779 L 186.979683 39.013779 L 186.979683 9.754087 L 181.322280 9.754087 Z M 198.314340 31.391172 L 198.314340 9.754087 L 192.577534 9.754087 L 192.577534 31.391172 Z M 198.314340 39.192434 L 198.314340 33.971742 L 192.577534 33.971742 L 192.577534 39.192434 Z M 213.698506 13.783746 L 213.698506 9.555582 L 211.018683 9.456329 Q 207.008875 9.317375 205.539935 10.845866 Q 204.587109 11.818543 204.587109 13.843298 L 204.587109 27.163008 L 201.569828 27.163008 L 201.569828 31.192667 L 204.587109 31.192667 L 204.587109 37.227230 L 210.184961 37.227230 L 210.184961 31.192667 L 213.698506 31.192667 L 213.698506 27.163008 L 210.184961 27.163008 L 210.184961 15.729099 Q 210.184961 14.399113 210.522420 14.071579 Q 210.859879 13.744045 212.586876 13.744045 Q 212.844933 13.744045 213.132766 13.753970 Q 213.420598 13.763895 213.698506 13.783746 Z M 226.124942 15.431341 L 230.591313 31.391172 L 236.606026 31.391172 L 229.181925 10.111397 Q 227.038067 3.957730 225.787483 2.478865 Q 224.536899 1.000000 220.785148 1.000000 Q 220.030827 1.000000 219.574265 1.009925 Q 219.117703 1.019851 218.204578 1.079402 L 218.204578 5.605325 L 218.919197 5.565624 Q 219.752920 5.525922 220.507240 5.625175 Q 221.261561 5.724428 221.777675 6.081738 Q 222.273938 6.419197 222.700725 7.491126 Q 223.127511 8.563055 223.048109 8.801261 L 215.107894 31.391172 L 221.400514 31.391172 Z M 269.637320 10.468706 Q 267.215554 8.979916 263.682159 8.979916 Q 257.865951 8.979916 254.153901 13.009575 Q 250.283046 17.059085 250.283046 24.086175 Q 250.283046 31.192667 254.193602 35.480383 Q 258.104158 39.768099 264.535732 39.768099 Q 270.113733 39.768099 273.498249 36.939398 Q 276.882766 34.110696 277.379029 29.882532 L 271.364316 29.882532 Q 270.669548 32.879963 267.969875 34.070995 Q 266.461234 34.726063 264.615134 34.726063 Q 261.081738 34.726063 258.808852 32.056165 Q 256.535965 29.386268 256.535965 24.026623 Q 256.535965 18.627277 258.997432 16.384166 Q 261.458898 14.141056 264.595283 14.141056 Q 267.672116 14.141056 269.637320 15.917679 Q 271.602523 17.694302 272.059085 20.572630 L 265.290052 20.572630 L 265.290052 25.455862 L 277.478282 25.455862 L 277.478282 9.754087 L 273.428772 9.754087 L 272.813406 13.406586 Q 271.046708 11.322279 269.637320 10.468706 Z M 295.006306 25.436011 Q 294.291687 27.004204 292.207380 27.004204 Q 289.785615 27.004204 288.951892 25.436011 Q 288.495330 24.542737 288.495330 22.776039 L 288.495330 9.754087 L 282.758525 9.754087 L 282.758525 31.351471 L 288.257124 31.351471 L 288.257124 28.195236 Q 289.309202 29.882532 290.242177 30.597151 Q 291.889772 31.867585 294.510043 31.867585 Q 296.991360 31.867585 298.519851 30.775806 Q 299.750585 29.763428 300.385802 28.175385 Q 301.497432 30.081037 303.145026 30.974311 Q 304.891874 31.867585 307.035732 31.867585 Q 308.464970 31.867585 309.854508 31.311770 Q 311.244046 30.755955 312.375526 29.366418 Q 313.288651 28.234937 313.606260 26.587342 Q 313.804765 25.495563 313.804765 23.391406 L 313.765064 9.754087 L 307.968707 9.754087 L 307.968707 23.530360 Q 307.968707 24.761093 307.571696 25.555114 Q 306.817376 27.063755 304.792621 27.063755 Q 302.450258 27.063755 301.556983 25.118403 Q 301.100421 24.086175 301.100421 22.637086 L 301.100421 9.754087 L 295.403317 9.754087 L 295.403317 22.637086 Q 295.403317 24.562588 295.006306 25.436011 Z M 330.757124 9.178421 Q 328.077301 9.178421 326.449557 10.250350 Q 325.476881 10.885568 324.345400 12.473610 L 324.345400 9.754087 L 318.807100 9.754087 L 318.807100 38.974078 L 324.444653 38.974078 L 324.444653 28.572396 Q 325.516582 30.081037 326.806867 30.875058 Q 328.335358 31.867585 330.697572 31.867585 Q 334.965438 31.867585 337.377278 28.790752 Q 339.789118 25.713919 339.789118 20.850537 Q 339.789118 15.808501 337.407054 12.493461 Q 335.024989 9.178421 330.757124 9.178421 Z M 333.853807 20.255021 Q 333.853807 22.557683 333.258291 24.066324 Q 332.126811 26.924802 329.089679 26.924802 Q 326.012845 26.924802 324.861514 24.125876 Q 324.265998 22.637086 324.265998 20.274872 Q 324.265998 17.495796 325.496731 15.669547 Q 326.727465 13.843298 329.248483 13.843298 Q 331.432042 13.843298 332.642925 15.609995 Q 333.853807 17.376693 333.853807 20.255021 Z M 361.743812 9.754087 L 361.743812 22.815740 L 350.309903 22.815740 L 350.309903 9.754087 L 344.255489 9.754087 L 344.255489 39.013779 L 350.309903 39.013779 L 350.309903 27.857777 L 361.743812 27.857777 L 361.743812 39.013779 L 367.818077 39.013779 L 367.818077 9.754087 Z" transform="scale(1.000000,1.000000) translate(-0.409038,-0.468031)" opacity="1.000000"></path>
    </g>
</svg>